# xmcd
#
# Track frame offsets:
#	150
#	11543
#	24261
#	33756
#	47267
#	58076
#	67391
#	79709
#	95303
#	108947
#
# Disc length: 1614 seconds
#
# Revision: 1
# Processed by: cddbd v1.5.2PL0 Copyright (c) Steve Scherf et al.
# Submitted via: audiograbber 1.83.01
#
DISCID=6f064c0a
DTITLE=Jean Shepard - Mercy, Ain't Love Good
DYEAR=1976
DGENRE=Country
TTITLE0=Mercy
TTITLE1=Come On Home
TTITLE2=A Satisfied Woman
TTITLE3=I Can't Imagine
TTITLE4=Name Dropper
TTITLE5=Ain't Love Good
TTITLE6=Slowly
TTITLE7=Sing Me An Old Fashioned Song
TTITLE8=We're All The Way
TTITLE9=Wife Of A Hard Working Man
EXTD=
EXTT0=
EXTT1=
EXTT2=
EXTT3=
EXTT4=
EXTT5=
EXTT6=
EXTT7=
EXTT8=
EXTT9=
PLAYORDER=
